<svg xmlns="http://www.w3.org/2000/svg" viewBox="0 0 200 200" fill="none">
  <!-- Cat body -->
  <ellipse cx="100" cy="120" rx="40" ry="35" fill="#ffffff" stroke="#2C3E50" stroke-width="2"/>
  
  <!-- Cat head -->
  <circle cx="100" cy="80" r="30" fill="#ffffff" stroke="#2C3E50" stroke-width="2"/>
  
  <!-- Cat ears -->
  <path d="M75 60 L85 40 L95 60" fill="#ffffff" stroke="#2C3E50" stroke-width="2"/>
  <path d="M105 60 L115 40 L125 60" fill="#ffffff" stroke="#2C3E50" stroke-width="2"/>
  
  <!-- Inner ears -->
  <path d="M80 55 L85 45 L90 55" fill="#FFB5A7"/>
  <path d="M110 55 L115 45 L120 55" fill="#FFB5A7"/>
  
  <!-- Cat eyes -->
  <ellipse cx="90" cy="75" rx="4" ry="6" fill="#2C3E50"/>
  <ellipse cx="110" cy="75" rx="4" ry="6" fill="#2C3E50"/>
  <ellipse cx="91" cy="73" rx="1" ry="2" fill="#ffffff"/>
  <ellipse cx="111" cy="73" rx="1" ry="2" fill="#ffffff"/>
  
  <!-- Cat nose -->
  <path d="M98 82 L102 82 L100 86 Z" fill="#FFB5A7"/>
  
  <!-- Cat mouth -->
  <path d="M100 86 Q95 90 90 88" stroke="#2C3E50" stroke-width="1.5" fill="none"/>
  <path d="M100 86 Q105 90 110 88" stroke="#2C3E50" stroke-width="1.5" fill="none"/>
  
  <!-- Whiskers -->
  <line x1="70" y1="78" x2="85" y2="80" stroke="#2C3E50" stroke-width="1"/>
  <line x1="70" y1="85" x2="85" y2="85" stroke="#2C3E50" stroke-width="1"/>
  <line x1="115" y1="80" x2="130" y2="78" stroke="#2C3E50" stroke-width="1"/>
  <line x1="115" y1="85" x2="130" y2="85" stroke="#2C3E50" stroke-width="1"/>
  
  <!-- Camera body -->
  <rect x="85" y="130" width="30" height="20" rx="3" fill="#2C3E50"/>
  
  <!-- Camera lens -->
  <circle cx="100" cy="140" r="8" fill="#6C757D"/>
  <circle cx="100" cy="140" r="5" fill="#495057"/>
  <circle cx="102" cy="138" r="1" fill="#ffffff"/>
  
  <!-- Camera strap -->
  <path d="M85 135 Q75 125 70 135 Q75 145 85 135" stroke="#FFB5A7" stroke-width="3" fill="none"/>
  <path d="M115 135 Q125 125 130 135 Q125 145 115 135" stroke="#FFB5A7" stroke-width="3" fill="none"/>
  
  <!-- Cat tail -->
  <path d="M140 120 Q160 110 155 140 Q150 130 140 125" fill="#ffffff" stroke="#2C3E50" stroke-width="2"/>
  
  <!-- Paw holding camera -->
  <ellipse cx="85" cy="145" rx="8" ry="5" fill="#ffffff" stroke="#2C3E50" stroke-width="1"/>
  <ellipse cx="115" cy="145" rx="8" ry="5" fill="#ffffff" stroke="#2C3E50" stroke-width="1"/>
  
  <!-- Little hearts around the cat -->
  <path d="M50 60 C50 55, 60 55, 60 65 C60 55, 70 55, 70 60 C70 70, 60 75, 60 75 C60 75, 50 70, 50 60" fill="#FFB5A7" opacity="0.7"/>
  <path d="M140 100 C140 95, 150 95, 150 105 C150 95, 160 95, 160 100 C160 110, 150 115, 150 115 C150 115, 140 110, 140 100" fill="#FFB5A7" opacity="0.7"/>
</svg>
